<?xml version="1.0" standalone="no"?>
<!DOCTYPE svg PUBLIC "-//W3C//DTD SVG 20010904//EN"
 "http://www.w3.org/TR/2001/REC-SVG-20010904/DTD/svg10.dtd">
<svg version="1.0" xmlns="http://www.w3.org/2000/svg"
 width="920.000000pt" height="600.000000pt" viewBox="0 0 920.000000 600.000000"
 preserveAspectRatio="xMidYMid meet">

<g transform="translate(0.000000,600.000000) scale(0.100000,-0.100000)"
fill="#000000" stroke="none">
<path d="M6160 5561 c-58 -21 -136 -53 -174 -70 -167 -78 -465 -177 -641 -212
-55 -11 -143 -23 -195 -26 -95 -5 -95 -5 -133 25 -22 17 -76 46 -120 64 -76
30 -91 32 -202 32 -134 1 -229 -14 -323 -51 -52 -20 -72 -23 -115 -18 -163 22
-360 99 -510 200 l-66 44 -6 -37 c-19 -116 -37 -161 -92 -229 -65 -80 -157
-128 -273 -141 -55 -7 -73 -4 -115 14 -228 98 -532 139 -718 98 -98 -22 -203
-74 -254 -126 -23 -24 -57 -59 -76 -78 -18 -20 -46 -62 -61 -93 -23 -49 -34
-61 -79 -83 -126 -65 -359 -118 -512 -117 -102 0 -291 37 -360 70 l-30 14 28
-25 c15 -15 25 -26 22 -26 -3 0 9 -24 28 -52 18 -29 36 -60 39 -68 4 -8 23
-53 42 -100 70 -166 116 -366 102 -443 -4 -20 -22 -49 -47 -73 -106 -103 -132
-203 -89 -346 l22 -74 -33 -50 c-25 -38 -148 -167 -161 -169 -2 -1 -40 -23
-85 -50 l-82 -49 79 -41 c194 -101 326 -244 379 -407 11 -34 10 -40 -9 -60
-96 -101 -130 -234 -88 -346 18 -48 94 -149 105 -139 2 2 16 -7 31 -21 27 -25
28 -27 15 -65 -7 -21 -23 -56 -33 -78 -11 -21 -17 -39 -13 -39 5 0 3 -4 -2 -8
-6 -4 -37 -44 -69 -90 -33 -45 -124 -145 -202 -222 -79 -77 -138 -140 -131
-141 7 0 66 -2 132 -4 296 -9 506 -53 649 -134 42 -25 55 -38 64 -69 29 -98
129 -200 256 -262 71 -36 167 -70 203 -72 7 -1 10 -4 8 -8 -2 -3 12 -21 32
-40 44 -44 80 -104 110 -188 18 -50 24 -85 24 -158 0 -82 -5 -107 -38 -208
l-39 -115 106 55 c132 71 200 111 321 190 119 77 210 123 353 179 139 54 322
101 339 87 25 -21 168 -42 281 -42 98 0 133 5 228 31 130 35 159 34 253 -10
36 -16 65 -28 65 -25 0 2 8 -4 18 -13 10 -10 48 -43 84 -75 71 -62 135 -152
178 -249 l28 -63 22 72 c51 166 218 345 466 494 l60 37 60 -16 c42 -12 98 -17
194 -16 121 0 142 3 208 27 l73 27 142 -46 c174 -56 390 -141 517 -201 52 -25
96 -45 98 -45 1 1 10 -6 20 -15 20 -17 186 -135 251 -177 23 -16 82 -63 130
-106 l86 -78 -3 41 c-2 23 -10 93 -18 156 -16 130 -18 350 -4 458 12 94 43
200 83 280 29 60 34 65 103 98 51 24 87 50 126 92 55 60 135 203 123 222 -3 5
-1 10 5 10 6 0 9 3 7 8 -3 4 5 8 16 8 12 1 63 7 112 13 110 13 312 14 380 0
28 -5 127 -25 220 -43 94 -19 171 -33 173 -31 4 4 -69 109 -81 117 -7 4 -9 8
-4 8 4 0 -5 19 -19 42 -30 47 -117 217 -151 293 -41 93 -86 315 -65 315 15 0
86 97 108 146 11 26 17 64 17 114 -1 64 -6 85 -34 144 -18 37 -41 73 -51 79
-10 7 -18 17 -18 23 0 16 -45 55 -54 47 -4 -4 -4 0 -1 10 15 37 291 196 343
197 24 0 11 15 -34 40 -26 13 -66 39 -89 57 -23 17 -46 29 -50 25 -3 -4 -5 -2
-3 3 1 6 -1 11 -6 12 -5 1 -14 12 -21 25 -6 13 -18 21 -26 20 -8 -2 -11 0 -6
4 4 4 -3 19 -16 33 -27 30 -47 92 -47 146 0 27 8 46 29 70 52 59 76 137 76
245 0 87 -3 100 -30 149 -40 72 -112 133 -220 185 -49 24 -98 46 -107 50 -54
17 34 301 188 608 35 70 61 128 56 128 -4 0 -16 -6 -27 -13 -99 -67 -428 -141
-546 -123 l-44 6 -1 53 c-1 28 -9 75 -19 102 -21 60 -74 137 -88 128 -6 -3 -7
-1 -3 5 10 16 -103 97 -162 116 -73 24 -175 36 -322 36 -204 0 -391 -39 -559
-116 l-73 -34 7 28 c3 15 17 54 31 88 13 33 24 64 24 68 0 4 13 27 30 50 16
24 30 50 32 57 2 8 5 16 8 19 7 7 41 60 38 59 -2 0 -50 -18 -108 -38z m-1823
-943 c-44 -174 -89 -449 -107 -655 -17 -182 -8 -765 14 -933 24 -179 63 -445
87 -585 11 -66 21 -124 22 -130 1 -5 -59 -17 -133 -27 -74 -10 -180 -24 -235
-32 -55 -8 -103 -11 -107 -7 -17 17 -119 614 -140 821 -15 159 -15 650 0 800
29 269 35 313 81 565 12 61 21 113 21 117 0 10 64 26 194 50 175 31 208 35
260 37 45 1 48 0 43 -21z m1338 -53 c71 -9 135 -18 142 -20 9 -3 8 -18 -3 -62
-50 -200 -71 -353 -83 -607 -12 -231 8 -524 45 -663 26 -98 30 -93 90 107 87
294 292 724 497 1043 55 86 55 86 163 66 97 -17 278 -61 287 -69 5 -4 -36 -84
-90 -176 -121 -205 -161 -278 -223 -403 -46 -92 -123 -269 -140 -321 -5 -14
-35 -102 -68 -196 -128 -363 -281 -950 -282 -1078 0 -30 -3 -37 -16 -32 -14 5
-259 55 -356 72 -34 6 -39 11 -58 61 -40 107 -99 348 -139 563 -42 229 -71
549 -71 785 0 168 -2 186 -17 183 -22 -4 -53 -91 -107 -300 -24 -95 -54 -209
-66 -253 -12 -44 -25 -98 -30 -120 -4 -22 -22 -103 -38 -180 -29 -135 -83
-440 -97 -555 -9 -65 -13 -92 -17 -95 -2 -1 -28 1 -58 6 -30 4 -121 11 -202
15 l-148 7 0 26 c0 71 71 525 100 641 10 41 26 111 35 155 43 211 191 685 288
922 47 113 183 391 224 456 l23 37 142 0 c78 0 201 -7 273 -15z m-2611 -337
c28 -632 274 -1573 539 -2063 27 -49 44 -91 38 -93 -5 -2 -85 -46 -176 -98
l-166 -95 -38 30 c-112 89 -441 470 -530 614 -32 53 -57 47 -54 -13 6 -113
138 -564 235 -799 28 -67 29 -74 14 -83 -9 -5 -73 -56 -143 -113 l-127 -104
-60 47 c-80 62 -327 310 -441 443 -229 268 -433 559 -570 814 -26 50 -58 108
-70 130 -24 46 -82 182 -114 272 -16 43 -20 67 -13 78 18 33 285 296 292 288
4 -4 19 -44 34 -88 93 -272 215 -511 449 -880 74 -116 158 -225 173 -225 8 0
14 2 14 5 0 3 -22 63 -49 133 -102 265 -170 511 -230 832 -22 112 -51 370 -51
444 l0 45 103 72 c167 118 157 112 161 97 51 -155 135 -356 215 -516 122 -242
359 -582 407 -582 19 0 19 4 -22 116 -67 184 -156 518 -190 713 -21 121 -53
365 -56 434 l-3 58 204 120 c113 65 207 119 211 119 4 0 10 -69 14 -152z
m4602 -108 c104 -46 208 -130 240 -191 l14 -29 -133 -167 c-254 -320 -487
-652 -612 -873 -27 -47 -79 -135 -116 -196 -37 -62 -84 -144 -104 -183 -31
-63 -38 -70 -54 -61 -11 5 -57 32 -102 60 -45 27 -86 50 -91 50 -14 0 -9 23
26 136 37 120 122 339 165 424 16 30 31 65 35 78 12 36 162 314 254 471 95
162 194 307 295 435 76 98 70 96 183 46z m-950 -1891 c26 -28 29 -36 27 -96
-2 -98 -23 -141 -107 -221 -83 -78 -144 -108 -201 -98 -46 9 -65 40 -72 115
-15 157 131 331 278 331 38 0 50 -5 75 -31z"/>
</g>
</svg>
